# AST/ASF file generated using VICON BodyLanguage
# -----------------------------------------------
:version 1.10
:name VICON
:units
  mass 1.0
  length 0.45
  angle deg
:documentation
   .ast/.asf automatically generated from VICON data using
   VICON BodyBuilder and BodyLanguage model FoxedUp or BRILLIANT.MOD
:root
   order TX TY TZ RX RY RZ
   axis XYZ
   position 0 0 0  
   orientation 0 0 0 
:bonedata
  begin
     id 1 
     name lhipjoint
     direction 0.576517 -0.752066 0.319413 
     length 2.45433 
     axis 0 0 0  XYZ
  end
  begin
     id 2 
     name lfemur
     direction 0.34202 -0.939693 0  
     length 7.54459  
     axis 0 0 20  XYZ
    dof rx ry rz
    limits (-160.0 20.0)
           (-70.0 70.0)
           (-60.0 70.0)
  end
  begin
     id 3 
     name ltibia
     direction 0.34202 -0.939693 0   
     length 7.73986   
     axis 0 0 20   XYZ
    dof rx
    limits (-10.0 170.0)
  end
  begin
     id 4 
     name lfoot
     direction 0.090693 -0.249177 0.964202   
     length 2.28437   
     axis -90 7.62852e-016 20   XYZ
    dof rx rz
    limits (-45.0 90.0)
           (-70.0 20.0)
  end
  begin
     id 5 
     name ltoes
     direction 1.5356e-011 -4.21928e-011 1   
     length 1.14243   
     axis -90 7.62852e-016 20   XYZ
    dof rx
    limits (-90.0 20.0)
  end
  begin
     id 6 
     name rhipjoint
     direction -0.573937 -0.753736 0.320122   
     length 2.44889  
     axis 0 0 0  XYZ 
  end
  begin
     id 7 
     name rfemur
     direction -0.34202 -0.939693 0   
     length 7.50166   
     axis 0 0 -20   XYZ
    dof rx ry rz
    limits (-160.0 20.0)
           (-70.0 70.0)
           (-70.0 60.0)
  end
  begin
     id 8 
     name rtibia
     direction -0.34202 -0.939693 0   
     length 7.54266   
     axis 0 0 -20   XYZ
    dof rx
    limits (-10.0 170.0)
 end
 begin
     id 9 
     name rfoot
     direction -0.114017 -0.31326 0.942798   
     length 2.34212  
     axis -90 -7.62852e-016 -20   XYZ
    dof rx rz
    limits (-45.0 90.0)
           (-20.0 70.0)
  end
  begin
     id 10 
     name rtoes
     direction -1.53557e-011 -4.21867e-011 1   
     length 1.16246   
     axis -90 -7.62852e-016 -20   XYZ
    dof rx
    limits (-90.0 20.0)
  end
  begin
     id 11 
     name lowerback
     direction -0.0228371 0.999155 -0.034167   
     length 2.0537   
     axis 0 0 0   XYZ
    dof rx ry rz
    limits (-20.0 45.0)
           (-30.0 30.0)
           (-30.0 30.0)
  end
  begin
     id 12 
     name upperback
     direction 0.0198981 0.999794 0.00389455   
     length 2.05302   
     axis 0 0 0   XYZ
    dof rx ry rz
    limits (-20.0 45.0)
           (-30.0 30.0)
           (-30.0 30.0)
  end
  begin
     id 13 
     name thorax
     direction 0.0304566 0.99935 0.0192987   
     length 2.05315   
     axis 0 0 0   XYZ
    dof rx ry rz
    limits (-20.0 45.0)
           (-30.0 30.0)
           (-30.0 30.0)
  end
  begin
     id 14 
     name lowerneck
     direction -0.0196762 0.99417 0.106017   
     length 1.82056   
     axis 0 0 0   XYZ
    dof rx ry rz
    limits (-20.0 45.0)
           (-30.0 30.0)
           (-30.0 30.0)
  end
  begin
     id 15 
     name upperneck
     direction 0.00517787 0.9802 -0.197944   
     length 1.83835   
     axis 0 0 0   XYZ
    dof rx ry rz
    limits (-20.0 45.0)
           (-30.0 30.0)
           (-30.0 30.0)
  end
  begin
     id 16
     name head
     direction 0.00211419 0.996945 -0.078081  
     length 1.85629  
     axis 0 0 0   XYZ
    dof rx ry rz
    limits (-20.0 45.0)
           (-30.0 30.0)
           (-30.0 30.0)
  end
  begin
     id 17 
     name lclavicle
     direction 0.930001 0.365811 -0.0357824  
     length 3.81961  
     axis 0 0 0   XYZ
    dof ry rz
    limits (-20.0 10.0)
           (0.0 20.0)
  end
  begin
     id 18 
     name lhumerus
     direction 1 -4.48968e-011 -3.06644e-027   
     length 5.14507   
     axis 180 -30 -90   XYZ
    dof rx ry rz
    limits (-60.0 90.0)
           (-90.0 90.0)
           (-90.0 90.0)
  end
  begin
     id 19
     name lradius
     direction 1 -4.48965e-011 9.06925e-028   
     length 3.50646   
     axis 180 -30 -90   XYZ
    dof rx
    limits (-10.0 170.0)
  end
  begin
     id 20
     name lwrist
     direction 1 -4.48957e-011 1.03922e-027   
     length 1.75323   
     axis -2.56395e-016 90 90   XYZ
    dof ry
    limits (-180.0 0.0)
 end
  begin
     id 21 
     name lhand
     direction 1 -4.48967e-011 2.08017e-027   
     length 0.629969   
     axis -1.32723e-015 90 90   XYZ
    dof rx rz
    limits (-90.0 90.0)
           (-45.0 45.0)
  end
  begin
     id 22 
     name lfingers
     direction 1 -4.49089e-011 4.20095e-027   
     length 0.507897   
     axis -2.6545e-015 90 90   XYZ
    dof rx
    limits (0.0 90.0)
  end
  begin
     id 23
     name lthumb
     direction 0.707107 -6.35001e-011 0.707107   
     length 0.729241   
     axis -90 45 5.05613e-014   XYZ
    dof rx rz
    limits (-45.0 45.0)
           (-45.0 45.0)
  end
  begin
     id 24 
     name rclavicle
     direction -0.881882 0.464123 -0.0829113   
     length 3.47515  
     axis 0 0 0   XYZ 
    dof ry rz
    limits (-10.0 20.0)
           (-20.0 0.0)
  end
  begin
     id 25 
     name rhumerus
     direction -1 -4.48961e-011 -1.55672e-027  
     length 5.232   
     axis 180 30 90   XYZ
    dof rx ry rz
    limits (-90.0 60.0)
           (-90.0 90.0)
           (-90.0 90.0)
  end
  begin
     id 26 
     name rradius
     direction -1 -4.48963e-011 6.18178e-029   
     length 3.65641   
     axis 180 30 90   XYZ
    dof rx
    limits (-10.0 170.0)
  end
  begin
     id 27 
     name rwrist
     direction -1 -4.48982e-011 1.04136e-027   
     length 1.8282   
     axis -2.56395e-016 -90 -90   XYZ
    dof ry
    limits (-180.0 0.0)
  end
  begin
     id 28
     name rhand
     direction -1 -4.48929e-011 2.07378e-027   
     length 0.656807   
     axis -1.32723e-015 -90 -90   XYZ
    dof rx rz
    limits (-90.0 90.0)
           (-45.0 45.0)
  end
  begin
     id 29
     name rfingers
     direction -1 -4.489e-011 4.13816e-027   
     length 0.529535   
     axis -2.6545e-015 -90 -90   XYZ
    dof rx
    limits (0.0 90.0)
  end
  begin
     id 30
     name rthumb
     direction -0.707107 -6.34843e-011 0.707107   
     length 0.760309   
     axis -90 -45 -5.05613e-014   XYZ
    dof rx rz
    limits (-45.0 45.0)
           (-45.0 45.0)
  end
:hierarchy
  begin
    root lhipjoint rhipjoint lowerback
    lhipjoint lfemur
    lfemur ltibia
    ltibia lfoot
    lfoot ltoes
    rhipjoint rfemur
    rfemur rtibia
    rtibia rfoot
    rfoot rtoes
    lowerback upperback
    upperback thorax
    thorax lowerneck lclavicle rclavicle
    lowerneck upperneck
    upperneck head
    lclavicle lhumerus
    lhumerus lradius
    lradius lwrist
    lwrist lhand lthumb
    lhand lfingers
    rclavicle rhumerus
    rhumerus rradius
    rradius rwrist
    rwrist rhand rthumb
    rhand rfingers
  end

#!OML:ASF H:\ManfredETheater\Project 1\Capture day 1\Session 1\subject.ASF
:FULLY-SPECIFIED
:DEGREES
47
root -2.27053 18.629 25.5194 -160.4 2.56704 182.928
lowerback 19.6529 3.38572 3.96927
upperback 2.44755 5.8062 0.526873
thorax -7.98071 2.86205 -3.20049
lowerneck -14.9659 -3.97164 -3.89943
upperneck 4.50919 -4.76691 1.046
head 3.85975 -2.41943 0.578756
rclavicle -5.96354e-014 5.56597e-015
rhumerus -33.8434 20.8337 -91.0742
rradius 107.778
rwrist -5.71913
rhand -22.367 -0.180339
rfingers 7.12502
rthumb 4.05442 -30.1215
lclavicle -5.96354e-014 5.56597e-015
lhumerus -71.7262 -8.20241 97.4247
lradius 122.377
lwrist 16.8583
lhand -23.9854 -12.3838
lfingers 7.12502
lthumb 2.49148 17.5814
rfemur 8.71057 2.82684 25.9929
rtibia 14.422
rfoot 24.7301 -10.388
rtoes -24.9522
lfemur -89.6007 6.77645 -24.0472
ltibia 76.1863
lfoot -13.1806 -16.5804
ltoes -15.8302
48
root -2.24854 18.7414 25.0932 -160.675 2.34931 182.96
lowerback 20.0264 3.30711 3.94381
upperback 2.61961 5.74755 0.576841
thorax -8.0074 2.84961 -3.14202
lowerneck -15.0522 -4.01019 -3.97398
upperneck 4.38219 -4.81601 1.16681
head 3.83989 -2.43985 0.623387
rclavicle 5.20816e-014 -2.38542e-015
rhumerus -33.441 19.1995 -91.4278
rradius 104.929
rwrist -5.09281
rhand -22.3563 -0.462347
rfingers 7.12502
rthumb 4.06469 -30.4033
lclavicle 5.20816e-014 -2.38542e-015
lhumerus -69.9522 -7.91512 97.6407
lradius 120.943
lwrist 17.699
lhand -24.1888 -12.3166
lfingers 7.12502
lthumb 2.295 17.6508
rfemur 5.52417 2.38965 26.1584
rtibia 22.1862
rfoot 22.1678 -10.618
rtoes -23.7188
lfemur -87.9339 6.49377 -23.8864
ltibia 74.5846
lfoot -11.5981 -16.5771
ltoes -15.4286
49
root -2.2278 18.8432 24.6653 -161.013 2.14058 182.899
lowerback 20.4102 3.19936 3.85304
upperback 2.79498 5.63586 0.610261
thorax -8.04311 2.81347 -3.05147
lowerneck -15.0944 -4.01471 -4.02581
upperneck 4.22631 -4.82338 1.25197
head 3.80182 -2.44158 0.657945
rclavicle 1.07344e-014 1.19271e-014
rhumerus -33.1455 17.4792 -91.812
rradius 102.019
rwrist -4.58301
rhand -22.5709 -0.743589
rfingers 7.12502
rthumb 3.85751 -30.6884
lclavicle 1.07344e-014 1.19271e-014
lhumerus -68.1047 -7.7086 97.8713
lradius 119.357
lwrist 18.1208
lhand -24.5317 -12.3962
lfingers 7.12502
lthumb 1.96383 17.5745
rfemur 2.83564 1.79064 26.1989
rtibia 29.0146
rfoot 20.141 -10.8061
rtoes -22.4872
lfemur -86.0674 6.13103 -23.6905
ltibia 73.448
lfoot -10.507 -16.4714
ltoes -14.5584
50
root -2.20912 18.9422 24.2345 -161.4 1.9416 182.734
lowerback 20.7872 3.06547 3.69656
upperback 2.96356 5.47141 0.621473
thorax -8.08835 2.75279 -2.93296
lowerneck -15.085 -3.98653 -4.0518
upperneck 4.05506 -4.79088 1.29762
head 3.7484 -2.42548 0.68059
rclavicle 4.33351e-014 2.78299e-014
rhumerus -32.9715 15.7089 -92.1936
rradius 99.0931
rwrist -4.28493
rhand -22.961 -1.06886
rfingers 7.12502
rthumb 3.4808 -31.0202
lclavicle 4.33351e-014 2.78299e-014
lhumerus -66.2148 -7.58868 98.108
lradius 117.621
lwrist 18.1029
lhand -24.987 -12.6185
lfingers 7.12502
lthumb 1.52416 17.3558
rfemur 0.32559 1.04619 26.09
rtibia 35.4845
rfoot 18.3157 -10.9277
rtoes -21.3456
lfemur -83.9818 5.67994 -23.5071
ltibia 72.7122
lfoot -10.0675 -16.2617
ltoes -13.1845
51
root -2.19397 19.021 23.8035 -161.813 1.74539 182.462
lowerback 21.1484 2.90576 3.48744
upperback 3.11131 5.25384 0.602668
thorax -8.15105 2.66556 -2.80127
lowerneck -14.9535 -3.92436 -4.03008
upperneck 3.51011 -4.71773 1.22186
head 3.99004 -2.39805 0.745873
rclavicle 3.29983e-014 2.94201e-014
rhumerus -32.928 13.9196 -92.5566
rradius 96.2
rwrist -4.30188
rhand -23.4644 -1.51355
rfingers 7.12502
rthumb 2.99461 -31.4723
lclavicle 3.29983e-014 2.94201e-014
lhumerus -64.2997 -7.55706 98.3311
lradius 115.727
lwrist 17.6932
lhand -25.4366 -13.0108
lfingers 7.12502
lthumb 1.08988 16.9661
rfemur -2.13708 0.167974 25.8245
rtibia 41.8168
rfoot 16.4887 -10.9945
rtoes -20.57
lfemur -81.8422 5.13014 -23.4043
ltibia 72.3791
lfoot -10.2424 -15.9259
ltoes -11.1359
52
root -2.18237 19.0891 23.3731 -162.226 1.5545 182.067
lowerback 21.4792 2.72775 3.21475
upperback 3.23796 4.98792 0.546533
thorax -8.22294 2.55441 -2.65758
lowerneck -14.8891 -3.84641 -3.98194
upperneck 3.36768 -4.62762 1.18658
head 3.92053 -2.35605 0.735142
rclavicle 3.1408e-014 1.43125e-014
rhumerus -32.9986 12.1401 -92.8752
rradius 93.3854
rwrist -4.73693
rhand -24.0338 -2.07805
rfingers 7.12502
rthumb 2.44467 -32.0438
lclavicle 3.1408e-014 1.43125e-014
lhumerus -62.3508 -7.62798 98.543
lradius 113.694
lwrist 17.0242
lhand -25.8615 -13.4835
lfingers 7.12502
lthumb 0.679498 16.4951
rfemur -4.63705 -0.824835 25.3794
rtibia 48.0702
rfoot 14.6138 -11.0032
rtoes -20.1011
lfemur -79.6413 4.50394 -23.4625
ltibia 72.331
lfoot -10.9802 -15.3932
ltoes -8.47753
53
root -2.17359 19.1472 22.9445 -162.633 1.3605 181.511
lowerback 21.7959 2.53466 2.84035
upperback 3.33465 4.66725 0.443938
thorax -8.32408 2.41618 -2.48947
lowerneck -14.8239 -3.75443 -3.90356
upperneck 3.25189 -4.52175 1.1297
head 3.85861 -2.3065 0.712771
rclavicle 3.81667e-014 -2.22639e-014
rhumerus -33.1988 10.399 -93.1429
rradius 90.719
rwrist -5.62688
rhand -24.6152 -2.78223
rfingers 7.12502
rthumb 1.8832 -32.7537
lclavicle 3.81667e-014 -2.22639e-014
lhumerus -60.3776 -7.80131 98.7339
lradius 111.537
lwrist 16.2439
lhand -26.2068 -13.963
lfingers 7.12502
lthumb 0.345987 16.0164
rfemur -7.21612 -1.93572 24.7187
rtibia 54.2848
rfoot 12.6646 -10.9414
rtoes -19.8494
lfemur -77.4132 3.81763 -23.7745
ltibia 72.4962
lfoot -12.1828 -14.6157
ltoes -5.3934
54
root -2.16664 19.1963 22.5193 -162.998 1.17038 180.772
lowerback 22.0777 2.33714 2.32229
upperback 3.39957 4.29292 0.289735
thorax -8.44631 2.25288 -2.27687
lowerneck -14.7784 -3.65408 -3.80105
upperneck 3.15741 -4.40692 1.06008
head 3.80715 -2.2526 0.681987
rclavicle 4.05521e-014 -7.95139e-016
rhumerus -33.5352 8.73126 -93.3443
rradius 88.2771
rwrist -6.95863
rhand -25.1963 -3.60264
rfingers 7.12502
rthumb 1.32198 -33.5783
lclavicle 4.05521e-014 -7.95139e-016
lhumerus -58.3655 -8.07881 98.9027
lradius 109.281
lwrist 15.5375
lhand -26.4239 -14.4021
lfingers 7.12502
lthumb 0.1363 15.5776
rfemur -9.92214 -3.15028 23.819
rtibia 60.4316
rfoot 10.6543 -10.8108
rtoes -19.7758
lfemur -75.2171 3.09706 -24.3895
ltibia 72.787
lfoot -13.6571 -13.5929
ltoes -2.08145
55
root -2.16063 19.2375 22.0983 -163.324 0.991208 179.849
lowerback 22.3426 2.14199 1.64483
upperback 3.43912 3.87224 0.0874828
thorax -8.59056 2.07014 -2.00921
lowerneck -14.7632 -3.55016 -3.68926
upperneck 3.06615 -4.2885 0.992258
head 3.76283 -2.19686 0.649857
rclavicle 1.70955e-014 -7.95139e-016
rhumerus -34.0113 7.17536 -93.4718
rradius 86.1207
rwrist -8.66276
rhand -25.8005 -4.45851
rfingers 7.12502
rthumb 0.738472 -34.437
lclavicle 1.70955e-014 -7.95139e-016
lhumerus -56.3028 -8.46344 99.0548
lradius 106.958
lwrist 15.0685
lhand -26.5498 -14.7801
lfingers 7.12502
lthumb 0.0146899 15.1997
rfemur -12.7583 -4.45969 22.6789
rtibia 66.4876
rfoot 8.6085 -10.6234
rtoes -19.5716
lfemur -73.0732 2.37568 -25.307
ltibia 73.144
lfoot -15.2652 -12.3408
ltoes 0.999272
56
root -2.15488 19.2717 21.6828 -163.589 0.814779 178.767
lowerback 22.5848 1.94959 0.822872
upperback 3.45038 3.40985 -0.152142
thorax -8.75333 1.87105 -1.68367
lowerneck -14.7602 -3.4409 -3.57145
upperneck 2.95003 -4.16529 0.926354
head 3.71212 -2.13903 0.617604
rclavicle 3.97569e-014 -1.19271e-014
rhumerus -34.6466 5.76452 -93.5145
rradius 84.2981
rwrist -10.5601
rhand -26.4588 -5.24577
rfingers 7.12502
rthumb 0.102633 -35.2255
lclavicle 3.97569e-014 -1.19271e-014
lhumerus -54.1925 -8.95406 99.1973
lradius 104.607
lwrist 14.9342
lhand -26.6326 -15.0484
lfingers 7.12502
lthumb -0.0652046 14.9313
rfemur -15.7502 -5.85623 21.3369
rtibia 72.4162
rfoot 6.48632 -10.4198
rtoes -19.3151
lfemur -71.0113 1.66314 -26.4665
ltibia 73.5249
lfoot -16.9144 -10.964
ltoes 3.43296
57
root -2.1489 19.299 21.2731 -163.782 0.651659 177.587
lowerback 22.8039 1.76519 -0.0999676
upperback 3.43253 2.92515 -0.410631
thorax -8.93018 1.66515 -1.31022
lowerneck -14.7667 -3.33315 -3.47229
upperneck 2.79548 -4.0441 0.880795
head 3.65107 -2.08222 0.595367
rclavicle -1.82882e-014 -1.51076e-014
rhumerus -35.449 4.52456 -93.4587
rradius 82.8256
rwrist -12.4282
rhand -27.1509 -5.85749
rfingers 7.12502
rthumb -0.565879 -35.8365
lclavicle -1.82882e-014 -1.51076e-014
lhumerus -52.0485 -9.54593 99.334
lradius 102.27
lwrist 15.1888
lhand -26.6952 -15.3308
lfingers 7.12502
lthumb -0.12573 14.6489
rfemur -18.9089 -7.31303 19.8686
rtibia 78.167
rfoot 4.28886 -10.1854
rtoes -19.071
lfemur -69.0491 0.98078 -27.7542
ltibia 73.9064
lfoot -18.5182 -9.61355
ltoes 5.21225
58
root -2.14275 19.3207 20.8689 -163.897 0.51443 176.396
lowerback 22.9981 1.59155 -1.05319
upperback 3.38424 2.44101 -0.662109
thorax -9.11762 1.46223 -0.907714
lowerneck -14.774 -3.22653 -3.40274
upperneck 2.59514 -3.92331 0.857505
head 3.57563 -2.02584 0.586004
rclavicle -2.34566e-014 0
rhumerus -36.4163 3.48266 -93.2955
rradius 81.688
rwrist -13.9913
rhand -27.8801 -6.2113
rfingers 7.12502
rthumb -1.27015 -36.1873
lclavicle -2.34566e-014 0
lhumerus -49.9022 -10.221 99.4726
lradius 100.018
lwrist 15.7683
lhand -26.8551 -15.5489
lfingers 7.12502
lthumb -0.280105 14.4306
rfemur -22.2386 -8.78634 18.3831
rtibia 83.6792
rfoot 2.05508 -9.96647
rtoes -18.7096
lfemur -67.2037 0.358651 -29.046
ltibia 74.2737
lfoot -20.069 -8.42437
ltoes 6.38816
59
root -2.1367 19.3373 20.4695 -163.936 0.412997 175.287
lowerback 23.1836 2.22733 -1.60611
upperback 3.31958 1.77584 -0.846463
thorax -9.31061 0.607578 -0.511417
lowerneck -14.7965 -3.12244 -3.36253
upperneck 2.3645 -3.80383 0.850731
head 3.49393 -1.97062 0.587087
rclavicle -6.36111e-015 4.37326e-015
rhumerus -37.539 2.63631 -93.0266
rradius 80.8555
rwrist -15.0466
rhand -28.5813 -6.29502
rfingers 7.12502
rthumb -1.94732 -36.2659
lclavicle -6.36111e-015 4.37326e-015
lhumerus -47.7899 -10.9635 99.6109
lradius 97.9179
lwrist 16.5308
lhand -27.1376 -15.7486
lfingers 7.12502
lthumb -0.552958 14.2304
rfemur -25.7353 -10.2325 17.0025
rtibia 88.8855
rfoot -0.187379 -9.77781
rtoes -18.4035
lfemur -65.4671 -0.175724 -30.2188
ltibia 74.6243
lfoot -21.6116 -7.47078
ltoes 6.88298
60
root -2.13057 19.3495 20.0738 -163.898 0.354199 174.324
lowerback 23.3151 2.07515 -2.38857
upperback 3.21826 1.3582 -1.0232
thorax -9.50821 0.435398 -0.135377
lowerneck -14.8427 -3.0232 -3.35599
upperneck 2.11691 -3.68739 0.858162
head 3.41239 -1.91757 0.598245
rclavicle -1.78906e-014 2.62396e-014
rhumerus -38.7765 1.97167 -92.6472
rradius 80.2662
rwrist -15.4463
rhand -29.1811 -6.11191
rfingers 7.12502
rthumb -2.5266 -36.0767
lclavicle -1.78906e-014 2.62396e-014
lhumerus -45.761 -11.7372 99.7525
lradius 96.0654
lwrist 17.2725
lhand -27.5271 -15.9176
lfingers 7.12502
lthumb -0.929196 14.0601
rfemur -29.3995 -11.6007 15.8303
rtibia 93.7171
rfoot -2.33938 -9.61916
rtoes -18.0186
lfemur -63.8242 -0.600688 -31.1932
ltibia 74.9507
lfoot -23.1968 -6.7767
ltoes 6.89878
61
root -2.12459 19.3592 19.6798 -163.798 0.342044 173.549
lowerback 23.4074 1.925 -3.01885
upperback 3.09364 0.989569 -1.14699
thorax -9.70138 0.28654 0.198996
lowerneck -14.9254 -2.92378 -3.37286
upperneck 1.87822 -3.56724 0.871263
head 3.3418 -1.86332 0.615046
rclavicle 2.78299e-015 6.36111e-015
rhumerus -40.0923 1.46767 -92.1755
rradius 79.8556
rwrist -15.1743
rhand -29.6363 -5.70346
rfingers 7.12502
rthumb -2.96626 -35.6626
lclavicle 2.78299e-015 6.36111e-015
lhumerus -43.8708 -12.4948 99.8875
lradius 94.5349
lwrist 17.7764
lhand -27.8882 -16.109
lfingers 7.12502
lthumb -1.27792 13.8669
rfemur -33.2036 -12.8427 14.9401
rtibia 98.1039
rfoot -4.38137 -9.49231
rtoes -17.7194
lfemur -62.2361 -0.890701 -31.9354
ltibia 75.2349
lfoot -24.8471 -6.36534
ltoes 6.80978
